<svg viewBox="0 0 49 48" xmlns="http://www.w3.org/2000/svg">
  <style type="text/css">.st0{fill-rule:"evenodd";fill:"#111111";stroke:"none";}</style>
  <g id="logo" class="st0">
    <path d="M2.78296638,12.4816448 C0.927978854,15.9688555 0,19.8083883 0,24.0002433 C0,28.1935582 0.927978854,32.0326044 2.78296638,35.5188418 C4.63795391,39.0060525 7.18565121,41.8504212 10.4275136,44.053408 C13.6674356,46.2568813 17.3138637,47.5722498 21.3658278,48 L21.3658278,46.3955716 C17.1857997,45.3692631 14.1578624,42.8660239 12.2825011,38.8878007 C10.4056845,34.9090909 9.46751871,29.9468962 9.46751871,24.0002433 C9.46751871,18.0540771 10.4056845,13.0909091 12.2825011,9.11219928 C14.1578624,5.13348946 17.1857997,2.63073694 21.3658278,1.60442836 L21.3658278,0 C17.3138637,0.428236869 13.6674356,1.74360534 10.4275136,3.94707868 C7.18565121,6.15055202 4.63795391,8.99492077 2.78296638,12.4816448 L2.78296638,12.4816448 Z M38.5724864,3.94707868 C35.3315943,1.74360534 31.6856512,0.428236869 27.6346573,0 L27.6346573,1.60442836 C31.8132301,2.63073694 34.8406823,5.13348946 36.7174989,9.11219928 C38.5938304,13.0909091 39.5324813,18.0540771 39.5324813,24.0002433 C39.5324813,29.9468962 38.5938304,34.9090909 36.7174989,38.8878007 C34.8406823,42.8660239 31.8132301,45.3692631 27.6346573,46.3955716 L27.6346573,48 C31.6856512,47.5722498 35.3315943,46.2568813 38.5724864,44.053408 C41.8133786,41.8504212 44.3620461,39.0060525 46.2170336,35.5188418 C48.0720211,32.0326044 49,28.1935582 49,24.0002433 C49,19.8083883 48.0720211,15.9688555 46.2170336,12.4816448 C44.3620461,8.99492077 41.8133786,6.15055202 38.5724864,3.94707868 L38.5724864,3.94707868 Z"></path>
  </g>
</svg>